<svg width="1200" height="400" viewBox="0 0 1200 400" fill="none" xmlns="http://www.w3.org/2000/svg">
  <rect width="1200" height="400" rx="40" fill="#1F69FF"/>
  <g fill="#FFFFFF">
    <path d="M120 238c0 26 22 40 55 40 28 0 49-11 49-31 0-17-11-26-38-32l-22-5c-11-2-15-6-15-12 0-8 8-13 20-13 13 0 23 6 24 17h28c-1-23-20-38-52-38-31 0-50 14-50 35 0 17 11 27 36 32l22 5c11 2 16 6 16 13 0 8-8 13-22 13-15 0-26-7-27-18h-29z"/>
    <path d="M320 278c34 0 57-18 61-47h-30c-3 12-14 19-30 19-19 0-32-11-34-29h96v-10c0-39-24-64-62-64-40 0-66 28-66 66 0 39 25 65 65 65zm-34-81c3-17 15-28 32-28 18 0 30 10 31 28h-63z"/>
    <path d="M433 274h31v-71c0-19 10-31 27-31 16 0 25 10 25 28v74h31v-81c0-29-18-46-46-46-18 0-31 7-38 21h-2v-18h-28v124z"/>
    <path d="M582 274h31v-153h-31v153z"/>
    <path d="M649 274h31v-124h-31v124zm15-140c10 0 18-8 18-17s-8-17-18-17-18 8-18 17 8 17 18 17z"/>
    <path d="M714 274h31v-153h-31v153z"/>
    <path d="M780 274h31v-153h-31v153z"/>
    <path d="M862 274h31v-47h59v-25h-59v-32h68v-26h-99v130z"/>
    <path d="M972 274h31v-124h-31v124zm15-140c10 0 18-8 18-17s-8-17-18-17-18 8-18 17 8 17 18 17z"/>
    <path d="M1051 151l57 49-57 49v-26h-33v-46h33v-26z"/>
  </g>
</svg>
